<svg width="846" height="351" viewBox="0 0 846 351" fill="none" xmlns="http://www.w3.org/2000/svg">
<g clip-path="url(#clip0_18_75)">
<rect width="1024" height="500" transform="translate(-89 -74)" fill="white"/>
<g filter="url(#filter0_d_18_75)">
<rect x="-89" y="-74" width="1024" height="500" fill="url(#paint0_radial_18_75)"/>
</g>
<path fill-rule="evenodd" clip-rule="evenodd" d="M629.86 236.426L591.04 197.606L608.151 180.495L565.46 137.803C556.996 129.339 573.74 112.595 582.204 121.059L624.895 163.751L641.823 146.823L658.751 129.895L616.059 87.2035C607.595 78.7396 624.339 61.9958 632.803 70.4597L675.495 113.151L692.606 96.0396L731.426 134.86C734.92 186.878 739.353 201.574 776.873 239.554C781.105 235.322 785.337 239.554 791.685 245.902C798.033 252.25 800.149 258.597 793.801 264.945L759.945 298.801C753.597 305.149 747.249 303.033 740.902 296.685C734.554 290.337 730.322 286.105 734.554 281.873C696.574 244.353 681.878 239.92 629.86 236.426ZM662.611 201.466C660.273 203.803 660.273 207.593 662.611 209.93C664.948 212.267 668.737 212.267 671.074 209.93L704.93 176.074C707.267 173.737 707.267 169.948 704.93 167.611C702.593 165.273 698.803 165.273 696.466 167.611L662.611 201.466ZM688.002 209.93C685.665 212.267 685.665 216.057 688.002 218.394C690.339 220.731 694.129 220.731 696.466 218.394L713.394 201.466C715.731 199.129 715.731 195.339 713.394 193.002C711.057 190.665 707.267 190.665 704.93 193.002L688.002 209.93ZM709.162 231.09C706.825 228.753 706.825 224.963 709.162 222.626L717.626 214.162C719.963 211.825 723.752 211.825 726.09 214.162C728.427 216.499 728.427 220.289 726.09 222.626L717.626 231.09C715.289 233.427 711.499 233.427 709.162 231.09Z" fill="white"/>
<rect x="765.015" y="289.349" width="27.3413" height="257.538" transform="rotate(-45 765.015 289.349)" fill="white"/>
<path d="M93.1499 150.37H102.6L110.52 172.06L118.53 150.37H127.98L117 178.81L126.54 202.3L146.43 150.1H157.5L131.31 214H122.58L110.61 185.38L98.5499 214H89.7299L63.6299 150.1H74.6099L94.5899 202.3L104.13 178.81L93.1499 150.37ZM156.25 200.23C156.25 197.23 157.09 194.62 158.77 192.4C160.51 190.12 162.88 188.38 165.88 187.18C168.88 185.92 172.36 185.29 176.32 185.29C178.42 185.29 180.55 185.44 182.71 185.74C184.93 186.04 186.88 186.52 188.56 187.18V184.21C188.56 180.91 187.57 178.33 185.59 176.47C183.61 174.61 180.76 173.68 177.04 173.68C174.4 173.68 171.91 174.16 169.57 175.12C167.23 176.02 164.74 177.31 162.1 178.99L158.77 172.33C161.89 170.23 165.01 168.67 168.13 167.65C171.31 166.63 174.64 166.12 178.12 166.12C184.42 166.12 189.37 167.8 192.97 171.16C196.63 174.46 198.46 179.17 198.46 185.29V202.84C198.46 203.98 198.64 204.79 199 205.27C199.42 205.75 200.11 206.02 201.07 206.08V214C200.17 214.18 199.36 214.3 198.64 214.36C197.92 214.42 197.32 214.45 196.84 214.45C194.74 214.45 193.15 213.94 192.07 212.92C190.99 211.9 190.36 210.7 190.18 209.32L189.91 206.62C187.87 209.26 185.26 211.3 182.08 212.74C178.9 214.18 175.69 214.9 172.45 214.9C169.33 214.9 166.54 214.27 164.08 213.01C161.62 211.69 159.7 209.92 158.32 207.7C156.94 205.48 156.25 202.99 156.25 200.23ZM186.22 203.11C186.94 202.33 187.51 201.55 187.93 200.77C188.35 199.99 188.56 199.3 188.56 198.7V193.3C186.88 192.64 185.11 192.16 183.25 191.86C181.39 191.5 179.56 191.32 177.76 191.32C174.16 191.32 171.22 192.04 168.94 193.48C166.72 194.92 165.61 196.9 165.61 199.42C165.61 200.8 165.97 202.12 166.69 203.38C167.47 204.64 168.55 205.66 169.93 206.44C171.37 207.22 173.14 207.61 175.24 207.61C177.4 207.61 179.47 207.19 181.45 206.35C183.43 205.51 185.02 204.43 186.22 203.11ZM237.21 211.57C236.37 211.99 235.32 212.44 234.06 212.92C232.8 213.4 231.36 213.82 229.74 214.18C228.18 214.54 226.56 214.72 224.88 214.72C222.84 214.72 220.95 214.36 219.21 213.64C217.47 212.92 216.06 211.78 214.98 210.22C213.96 208.6 213.45 206.53 213.45 204.01V174.58H207.24V166.93H213.45V151.45H223.35V166.93H233.61V174.58H223.35V200.86C223.47 202.48 223.98 203.68 224.88 204.46C225.84 205.24 227.01 205.63 228.39 205.63C229.77 205.63 231.09 205.39 232.35 204.91C233.61 204.43 234.54 204.04 235.14 203.74L237.21 211.57ZM271.069 211.57C270.229 211.99 269.179 212.44 267.919 212.92C266.659 213.4 265.219 213.82 263.599 214.18C262.039 214.54 260.419 214.72 258.739 214.72C256.699 214.72 254.809 214.36 253.069 213.64C251.329 212.92 249.919 211.78 248.839 210.22C247.819 208.6 247.309 206.53 247.309 204.01V174.58H241.099V166.93H247.309V151.45H257.209V166.93H267.469V174.58H257.209V200.86C257.329 202.48 257.839 203.68 258.739 204.46C259.699 205.24 260.869 205.63 262.249 205.63C263.629 205.63 264.949 205.39 266.209 204.91C267.469 204.43 268.399 204.04 268.999 203.74L271.069 211.57ZM278.826 214V166.93H288.726V214H278.826ZM278.826 159.19V148.3H288.726V159.19H278.826ZM314.662 214L296.752 166.93H307.012L320.422 204.82L333.832 166.93H343.372L325.462 214H314.662ZM351.377 214V166.93H361.278V214H351.377ZM351.377 159.19V148.3H361.278V159.19H351.377ZM374.074 214V166.93H383.974V214H374.074ZM374.074 159.19V148.3H383.974V159.19H374.074ZM413.511 214.9C409.551 214.9 405.801 214.27 402.261 213.01C398.721 211.69 395.691 209.74 393.171 207.16L396.861 200.5C399.561 202.9 402.261 204.64 404.961 205.72C407.721 206.8 410.451 207.34 413.151 207.34C415.911 207.34 418.161 206.83 419.901 205.81C421.641 204.73 422.511 203.17 422.511 201.13C422.511 199.63 422.061 198.52 421.161 197.8C420.261 197.08 418.941 196.45 417.201 195.91C415.521 195.37 413.481 194.77 411.081 194.11C407.721 193.09 404.901 192.04 402.621 190.96C400.341 189.82 398.631 188.44 397.491 186.82C396.351 185.2 395.781 183.13 395.781 180.61C395.781 177.55 396.561 174.94 398.121 172.78C399.681 170.62 401.841 168.97 404.601 167.83C407.421 166.69 410.661 166.12 414.321 166.12C417.741 166.12 420.891 166.66 423.771 167.74C426.711 168.76 429.291 170.38 431.511 172.6L427.281 179.17C425.181 177.25 423.021 175.84 420.801 174.94C418.641 174.04 416.301 173.59 413.781 173.59C412.341 173.59 410.961 173.77 409.641 174.13C408.321 174.43 407.211 175.03 406.311 175.93C405.471 176.77 405.051 177.97 405.051 179.53C405.051 180.79 405.411 181.81 406.131 182.59C406.851 183.37 407.931 184.03 409.371 184.57C410.811 185.11 412.581 185.71 414.681 186.37C418.341 187.45 421.461 188.53 424.041 189.61C426.621 190.63 428.601 191.98 429.981 193.66C431.421 195.28 432.141 197.53 432.141 200.41C432.141 204.97 430.431 208.54 427.011 211.12C423.651 213.64 419.151 214.9 413.511 214.9ZM438.46 200.23C438.46 197.23 439.3 194.62 440.98 192.4C442.72 190.12 445.09 188.38 448.09 187.18C451.09 185.92 454.57 185.29 458.53 185.29C460.63 185.29 462.76 185.44 464.92 185.74C467.14 186.04 469.09 186.52 470.77 187.18V184.21C470.77 180.91 469.78 178.33 467.8 176.47C465.82 174.61 462.97 173.68 459.25 173.68C456.61 173.68 454.12 174.16 451.78 175.12C449.44 176.02 446.95 177.31 444.31 178.99L440.98 172.33C444.1 170.23 447.22 168.67 450.34 167.65C453.52 166.63 456.85 166.12 460.33 166.12C466.63 166.12 471.58 167.8 475.18 171.16C478.84 174.46 480.67 179.17 480.67 185.29V202.84C480.67 203.98 480.85 204.79 481.21 205.27C481.63 205.75 482.32 206.02 483.28 206.08V214C482.38 214.18 481.57 214.3 480.85 214.36C480.13 214.42 479.53 214.45 479.05 214.45C476.95 214.45 475.36 213.94 474.28 212.92C473.2 211.9 472.57 210.7 472.39 209.32L472.12 206.62C470.08 209.26 467.47 211.3 464.29 212.74C461.11 214.18 457.9 214.9 454.66 214.9C451.54 214.9 448.75 214.27 446.29 213.01C443.83 211.69 441.91 209.92 440.53 207.7C439.15 205.48 438.46 202.99 438.46 200.23ZM468.43 203.11C469.15 202.33 469.72 201.55 470.14 200.77C470.56 199.99 470.77 199.3 470.77 198.7V193.3C469.09 192.64 467.32 192.16 465.46 191.86C463.6 191.5 461.77 191.32 459.97 191.32C456.37 191.32 453.43 192.04 451.15 193.48C448.93 194.92 447.82 196.9 447.82 199.42C447.82 200.8 448.18 202.12 448.9 203.38C449.68 204.64 450.76 205.66 452.14 206.44C453.58 207.22 455.35 207.61 457.45 207.61C459.61 207.61 461.68 207.19 463.66 206.35C465.64 205.51 467.23 204.43 468.43 203.11ZM520.041 175.48C516.201 175.54 512.781 176.41 509.781 178.09C506.841 179.77 504.741 182.14 503.481 185.2V214H493.581V166.93H502.761V177.46C504.381 174.22 506.511 171.64 509.151 169.72C511.791 167.74 514.581 166.66 517.521 166.48C518.121 166.48 518.601 166.48 518.961 166.48C519.381 166.48 519.741 166.51 520.041 166.57V175.48ZM528.143 214V166.93H538.043V214H528.143ZM528.143 159.19V148.3H538.043V159.19H528.143Z" fill="white"/>
</g>
<defs>
<filter id="filter0_d_18_75" x="-93.7407" y="-74" width="1033.48" height="509.481" filterUnits="userSpaceOnUse" color-interpolation-filters="sRGB">
<feFlood flood-opacity="0" result="BackgroundImageFix"/>
<feColorMatrix in="SourceAlpha" type="matrix" values="0 0 0 0 0 0 0 0 0 0 0 0 0 0 0 0 0 0 127 0" result="hardAlpha"/>
<feOffset dy="4.74074"/>
<feGaussianBlur stdDeviation="2.37037"/>
<feComposite in2="hardAlpha" operator="out"/>
<feColorMatrix type="matrix" values="0 0 0 0 0 0 0 0 0 0 0 0 0 0 0 0 0 0 0.25 0"/>
<feBlend mode="normal" in2="BackgroundImageFix" result="effect1_dropShadow_18_75"/>
<feBlend mode="normal" in="SourceGraphic" in2="effect1_dropShadow_18_75" result="shape"/>
</filter>
<radialGradient id="paint0_radial_18_75" cx="0" cy="0" r="1" gradientUnits="userSpaceOnUse" gradientTransform="translate(68 53.5) rotate(17.7104) scale(637.724 543.924)">
<stop stop-color="#54A8B2"/>
<stop offset="1" stop-color="#007885"/>
</radialGradient>
<clipPath id="clip0_18_75">
<rect width="1024" height="500" fill="white" transform="translate(-89 -74)"/>
</clipPath>
</defs>
</svg>
